<svg version="1.2" baseProfile="tiny-ps" xmlns="http://www.w3.org/2000/svg" viewBox="0 0 1722 2000" width="1722" height="2000">
	<title>girl-sitting-on-books-with-laptop-by-oblik-studio-svg</title>
	<style>
		tspan { white-space:pre }
		.shp0 { fill: #202022 } 
		.shp1 { fill: #eea071 } 
		.shp2 { fill: #ebdbcd } 
		.shp3 { fill: #87afa7 } 
		.shp4 { fill: #514438 } 
		.shp5 { fill: #001d80 } 
		.shp6 { fill: #bde6de } 
		.shp7 { fill: #f3e9e1 } 
		.shp8 { fill: #b8a89a } 
		.shp9 { fill: #f0a173 } 
	</style>
	<g id="Layer">
		<path id="Layer" class="shp0" d="M808.6 281.5L774.5 535C774.1 538.2 775.8 541.5 778.8 542.8C788.7 547.1 811.8 556.2 837.7 557.5C858.6 558.6 895.7 553 917.1 546.5C921 545.2 923.6 540.9 922.1 537L922.1 537L822.8 279.6C820.2 272.4 809.6 273.7 808.6 281.5Z" />
		<path id="Layer" class="shp1" d="M922.7 501.4C840.36 501.4 773.8 434.84 773.8 352.5C773.8 270.16 840.36 203.6 922.7 203.6C1005.04 203.6 1071.6 270.16 1071.6 352.5C1071.6 434.84 1005.04 501.4 922.7 501.4Z" />
		<path id="Layer" class="shp2" d="M495.9 1498.7L699.6 1498.7L699.6 1652.8L495.9 1652.8L495.9 1498.7Z" />
		<path id="Layer" class="shp3" d="M475.8 1486.9L475.8 1498.7L699.8 1498.7L699.8 1652.8L475.8 1652.8L475.8 1664.5L1337.2 1664.5L1337.2 1486.9L475.8 1486.9Z" />
		<path id="Layer" class="shp1" d="M390.4 1395.8C395.4 1427.3 401.6 1458.6 409.2 1489.7C422.4 1544.5 506.7 1521.2 493.6 1466.4C486 1435.3 480 1404 474.8 1372.5C471.1 1349.2 442 1336.2 421.1 1341.9C396 1349 386.7 1372.5 390.4 1395.8L390.4 1395.8Z" />
		<path id="Layer" class="shp3" d="M895.9 931.6C895 931.2 894.2 930.7 893.3 930.7C878.8 928.3 767.5 909.1 651.8 886.9C600.2 877 450 834.5 371.5 865.1C293 895.7 277.4 941.7 270.5 974.1C264.5 1003.2 275 1102.3 300.7 1202.8C323.6 1292.8 379.5 1406.7 391.1 1429.8C392.4 1432.6 395.2 1434.3 398.2 1434.5C405.3 1434.9 419.8 1434.7 438.3 1429.1C454.7 1424.1 472.2 1414.9 480.2 1410.5C482.8 1409 484.5 1406.2 484.5 1403.2C484.9 1378.2 486.9 1261.2 483.9 1179C480.9 1099.2 453.5 1072.8 453.5 1072.8C453.5 1072.8 548 1177.7 644.5 1206.4C720.9 1229.1 881 1279.3 947.2 1277.4C1024 1275.2 1079.5 1242.9 1104.3 1203.8C1150.3 1131.5 1121.8 1024.5 1114.4 1001C1113.5 998 1111.2 995.8 1108.1 995.2C1082.9 989.2 962.9 960.5 931.8 947.5C906.5 936.8 898.5 932.9 895.9 931.6Z" />
		<path id="Layer" class="shp1" d="M1110.9 898C1110.9 898 1109.2 917.9 1111.1 946.1C1113 974.6 1117.4 996.4 1117.4 996.4C1117.4 996.4 1002.4 977.8 958.8 961C903.8 939.6 894.9 931 894.9 931C894.9 931 905.3 907.9 908.9 891.3C911.7 879 913.2 845.1 913.2 845.1C913.2 845.1 972.8 873.4 1014.4 883.3C1056.1 893.2 1110.9 898 1110.9 898Z" />
		<path id="Layer" class="shp2" d="M892.9 1472.6L631 1472.6L631 1380.2L893 1380.2C900.1 1380.2 905.9 1386 905.9 1393.1L905.9 1459.6C905.9 1467 900 1472.6 892.9 1472.6Z" />
		<path id="Layer" class="shp4" d="M1365.1 1363.2L844.6 1363.2L616.3 1363.2L609.4 1363.2C605.5 1363.2 602.3 1366.4 602.3 1370.3C602.3 1374.2 605.5 1377.4 609.4 1377.4L631 1377.4L631 1377.4L880 1377.4C894.2 1377.4 905.9 1389.1 905.9 1403.3L905.9 1443.7C905.9 1457.9 894.2 1469.6 880 1469.6L823 1469.6L823 1469.6L610.9 1469.6C607 1469.6 603.8 1472.8 603.8 1476.7C603.8 1480.6 607 1483.8 610.9 1483.8L616.3 1483.8L846.3 1483.8L1365.1 1483.8C1379.3 1483.8 1391 1472.1 1391 1457.9L1391 1388.8C1391 1374.7 1379.3 1363.2 1365.1 1363.2Z" />
		<path id="Layer" class="shp1" d="M463.3 800.7C540.6 766 629.9 812.6 706.9 825.7C782.4 838.6 865.1 828.5 917.5 766.8C929.4 752.8 931.3 732.3 917.5 718.5C905.2 706.2 881 704.3 869.2 718.5C819.8 776.5 743.2 766 676.9 749.1C593.8 727.7 511.4 704.6 429 741.5C412.2 749.1 408.1 773.7 416.7 788.3C426.6 805.8 446.5 808.2 463.3 800.7L463.3 800.7Z" />
		<path id="Layer" class="shp1" d="M488.1 822C572 794.6 654.9 848.8 733.4 871.8C808.5 893.8 892 890.4 950.7 833.4C982.4 802.8 933.9 754.2 902.4 785.1C849.5 836.5 772.1 814.9 711.2 792.2C633.7 763.5 553.2 728.8 470 755.9C428.3 769.6 446.2 835.8 488.1 822L488.1 822Z" />
		<path id="Layer" class="shp5" d="M843.9 265.3L843.9 265.3L843.9 265.3Z" />
		<path id="Layer" class="shp6" d="M1016.4 563.5C1023.7 565.7 1089.1 592 1113.7 679.6C1134.2 751.9 1151.2 859.1 1156.6 894.3C1157.7 901 1153.1 907.5 1146.5 908.8C1126.9 912.7 1084.6 918.7 1031.3 914C957.1 907.3 909.8 887.2 909.8 887.2L911.7 870.4L905 873.4C899.8 875.8 893.6 874.3 890.3 869.7L842 805.4C838.8 801.1 840.3 795 844.8 792.7L845.4 792.3L806.3 745.3C802.6 740.8 802.8 734.3 807.2 730.2C821 716.8 851 686.6 872.4 657.5C887.9 636.4 908.4 597.9 921.2 583.1C946.7 552.9 997.2 557.9 1016.4 563.5Z" />
		<path id="Layer" class="shp1" d="M1018.7 590.9L971 468.6L880.4 467.9L927.9 590.3L1018.7 590.9Z" />
		<path id="Layer" class="shp1" d="M396.4 791.4C416 779.1 436.5 769.4 458.5 762.5C476.8 756.9 469.1 727.5 450.5 733.2C426.1 740.8 402.8 751.3 381.2 765.1C365.1 775.4 380 801.7 396.4 791.4L396.4 791.4Z" />
		<path id="Layer" class="shp0" d="M1132.38 206.36C1122.57 235.8 1090.85 251.66 1061.42 241.85C1031.99 232.04 1016.13 200.32 1025.94 170.89C1035.75 141.45 1067.47 125.59 1096.9 135.4C1126.33 145.21 1142.19 176.93 1132.38 206.36Z" />
		<path id="Layer" class="shp0" d="M1132 542.4C1138 540.2 1141.5 533.8 1139.3 527.5L1067.9 311.5C1050 248 991.8 201.4 922.5 201.4C877.4 201.4 837 221.3 809.2 252.3L809.2 252.3C809.6 252.3 838.3 259.6 859.7 281.2C881.3 302.8 868.3 328.7 894.2 354.6C911.5 371.9 937.4 380.5 937.4 380.5C937.4 383.1 950.1 448.3 960.3 498.8C962.5 509.8 964.6 522.8 966.3 532.7C967.2 537.4 970.4 541.3 974.9 543.3C1001 553.9 1031.2 559.3 1063.4 557.8C1086.7 556.6 1116.3 547.5 1132 542.4Z" />
		<path id="Layer" class="shp3" d="M1116 981.9C1116 981.9 1126.4 1024.2 1123.1 1024.2C1119.9 1024 994.9 999.4 962.6 992.3C891.2 977 880.2 928.4 880.2 928.4C880.2 928.4 885.8 928.2 891.9 923.7C897.9 919.2 900.1 917.4 900.1 917.4C900.1 917.4 910.2 942.4 972.4 960.6C1058.4 985.6 1116 981.9 1116 981.9Z" />
		<path id="Layer" class="shp4" d="M403.5 1465.5C403.5 1465.5 432 1465.3 446.4 1462.7C460.8 1460.1 488.7 1446.3 488.7 1446.3C488.7 1446.3 505.1 1482.6 509.8 1492C514.5 1501.5 534.8 1525.4 537.4 1541C540 1556.5 540.6 1591.5 480.4 1596.9C452.6 1599.3 426.2 1656 395.8 1660.1C380.7 1662.3 309.3 1670 289 1659C268.9 1648 275.2 1618.2 324.2 1602C373.2 1585.8 363.9 1569.6 375.6 1548.7C387.1 1527.9 403.5 1465.5 403.5 1465.5Z" />
		<path id="Layer" class="shp1" d="M236.7 1409.8C232.4 1445 228.3 1479.9 224 1515.1C221.2 1538.6 246.2 1558.9 267.8 1558.9C293.7 1558.9 308.6 1538.6 311.6 1515.1C315.9 1479.9 320 1445 324.3 1409.8C327.1 1386.3 302.1 1366 280.5 1366C254.4 1366.2 239.5 1386.3 236.7 1409.8L236.7 1409.8Z" />
		<path id="Layer" class="shp3" d="M926.4 1276.3C989.6 1282.6 1048.1 1264.9 1092.6 1221.9C1136.8 1179 1134.2 1106.7 1131.7 1077.5C1129.8 1054.4 1122 1017.1 1119 1002.4C1118.1 998.7 1115.3 995.9 1111.7 995.3C1089 991.2 1010.1 977 986.5 969.6C967.3 963.6 950.2 957.1 941.8 953.6C938.6 952.3 934.9 953 932.3 955.3C925.2 961.8 907.9 973.6 880.1 970.8C842.1 966.9 675.1 915.3 609.3 895.1C543.5 874.9 433 825.8 330.7 859.7C265.5 881.3 216.5 943.6 215.3 1074.6C214.4 1176.2 214.2 1306.4 215.9 1355.3C217.2 1393.9 215.7 1434.7 215 1450.2C214.8 1454.3 217.2 1457.8 220.8 1459.3C227.5 1461.9 239.4 1465.8 256.4 1469.4C277.5 1473.9 303.7 1472.2 315.3 1470.9C319 1470.5 322 1468.1 323.1 1464.6C329.4 1446 349.9 1384.3 368.4 1332.5C414.8 1202.8 418.7 1133.1 416.5 1101.6C415.9 1093.8 424.5 1088.9 431 1093.4C461.6 1114.5 527.5 1157.9 601.3 1190.9C702.4 1236.8 847.6 1268.3 926.4 1276.3Z" />
		<path id="Layer" class="shp2" d="M1015.3 981.3C1015.7 1026.8 1001.5 1073.4 968.5 1106C953.6 1120.7 935.3 1132.3 915.2 1138.4C891 1145.7 865.6 1144.4 841 1140.6C748.9 1125.9 664.5 1083.4 581.2 1043.7C539.3 1023.6 497.3 1004 453.5 988.2C442.5 984.3 431.5 980.4 420.5 977.2C408.2 973.5 395.5 970.1 382.7 971.6C362 973.8 346 988 335.2 1004.8C323.8 1022.7 318.2 1044.3 313.6 1065C308.4 1087.9 305.2 1111.2 303 1134.5C299.8 1168.2 298.9 1201.8 295.9 1235.5C289.6 1302.4 282.1 1369.7 270.2 1436C269.3 1441.4 268.3 1446.6 267.2 1451.8C265.7 1459.1 276.9 1462.4 278.4 1454.8C284.2 1427.2 288.1 1399.1 291.8 1371.1C296.8 1334.8 301.1 1298.4 305 1261.9C308.2 1231.3 310.4 1200.8 312.1 1170C314.5 1124.5 319.4 1077.6 334.3 1034.1C340.6 1015.5 351.3 996.3 369.5 987.1C391.1 976.1 417.2 987.5 438.1 994.9C482.3 1010 525.1 1029.4 567.1 1049.7C650.6 1089.4 734.6 1132.8 826.5 1149.8C851.5 1154.3 877 1157.6 902.2 1153.5C922.9 1150 943 1141.2 959.8 1128.7C996.3 1101.9 1018.3 1060.3 1025 1015.8C1026.7 1004.4 1027.6 992.7 1027.4 981.1C1026.9 973.7 1015.3 973.7 1015.3 981.3L1015.3 981.3Z" />
		<path id="Layer" class="shp1" d="M391.4 814.9C410.8 796.1 436.3 789.4 462.2 784.5C480.5 780.8 474.1 752.3 455.5 756C424.9 762 394.6 771.3 371.6 793.5C358.2 806.5 377.8 828.1 391.4 814.9L391.4 814.9Z" />
		<path id="Layer" class="shp1" d="M497.4 823.5L434.4 839C425.1 841.4 415.6 835.5 413.5 826.3L403.6 786.4C401.2 777.1 407.1 767.6 416.3 765.5L479.3 750C488.6 747.6 498.1 753.5 500.2 762.7L510.1 802.6C512.3 811.9 506.7 821.4 497.4 823.5Z" />
		<path id="Layer" class="shp2" d="M1020.9 1359.8L596.9 1359.8L596.9 1271.1L1020.9 1271.1C1033 1271.1 1042.7 1280.8 1042.7 1292.9L1042.7 1337.8C1042.7 1349.8 1033 1359.8 1020.9 1359.8Z" />
		<path id="Layer" class="shp0" d="M1285 1264.2L578.7 1264.2C577 1264.2 575.5 1265.7 575.5 1267.4L575.5 1267.4C575.5 1269.1 577 1270.6 578.7 1270.6L997.5 1270.6C1022.1 1270.6 1042 1290.5 1042 1315.1L1042 1315.1C1042 1339.7 1022.1 1359.6 997.5 1359.6L578.7 1359.6C577 1359.6 575.5 1361.1 575.5 1362.8L575.5 1362.8C575.5 1364.5 577 1366 578.7 1366L1285 1366C1309.6 1366 1329.5 1346.1 1329.5 1321.5L1329.5 1308.6C1329.5 1284 1309.6 1264.2 1285 1264.2Z" />
		<path id="Layer" class="shp4" d="M78.8 1722.5C89.4 1743.9 142.5 1753.4 197.3 1714.1C280.2 1654.8 329.8 1672.9 329.8 1623.3C329.8 1601.1 325.3 1580.6 319.4 1557.1C314 1535.7 314.2 1495.4 314.2 1495.4C314.2 1495.4 274.7 1499.7 254.6 1496C239.1 1493.2 227.8 1487.2 227.8 1487.2C227.8 1487.2 222 1519.1 203.6 1552.8C190.7 1576.5 181.2 1591 159.1 1611.3C145.7 1623.5 61.1 1687.1 78.8 1722.5Z" />
		<g id="Layer">
			<path id="Layer" class="shp7" d="M1351.5 24.7C1380.8 55.1 1397.5 88.6 1415.8 126.1C1421 136.5 1452.5 115.7 1450.1 105.6C1440.4 65.5 1414.1 30.5 1384.7 2C1375.2 -7 1343.7 16.7 1351.5 24.7L1351.5 24.7Z" />
			<path id="Layer" class="shp7" d="M1530.4 21C1529.5 58.1 1521.8 92.9 1514.6 129.1C1511.4 145.1 1542 126.3 1545.2 118.1C1558.8 82.7 1562.7 42.1 1562.2 4.4C1562.1 -6.8 1530.6 9.8 1530.4 21L1530.4 21Z" />
			<path id="Layer" class="shp7" d="M1603.7 174.4C1626.6 163.2 1649.9 152.2 1673.2 141.8C1681.6 138.1 1692.6 128.2 1690.2 117.8C1687.8 107.4 1674.7 108.3 1667.1 111.5C1643.8 122.1 1620.7 132.9 1597.6 144.1C1589.4 148.2 1578.2 157.5 1580.6 168.1C1583 178.5 1596.4 178.1 1603.7 174.4L1603.7 174.4Z" />
		</g>
		<g id="Layer">
			<path id="Layer" class="shp8" d="M1446.34 389.53C1442.32 398.03 1421.01 396.35 1398.66 385.78C1376.31 375.21 1361.5 359.8 1365.52 351.3C1369.54 342.8 1390.85 344.48 1413.2 355.05C1435.54 365.62 1450.36 381.03 1446.34 389.53Z" />
			<g id="Layer">
				<g id="Layer">
					<path id="Layer" class="shp2" d="M1376.1 334.1C1383.7 319.2 1390.1 303.7 1392.7 287.3C1398.5 251.7 1387.7 210.9 1409.3 182.2C1424.8 161.5 1453.5 154.4 1479.2 157.2C1510.5 160.7 1541.1 178.1 1556.5 205.8C1571.9 233.5 1569.2 271 1547.4 293.8C1529.1 313 1501 319.7 1481.6 337.8C1470.8 347.9 1463.5 361.1 1455.5 373.8L1452.9 377.7C1392 373.2 1376.1 334.1 1376.1 334.1Z" />
				</g>
			</g>
			<path id="Layer" fill-rule="evenodd" class="shp4" d="M1471.8 309.3C1467.1 317.7 1462.1 326.3 1456.3 334.1C1450.7 341.2 1443.2 346.6 1435.6 351.6C1431.3 354.4 1427 347.5 1431.3 344.7C1437.5 340.2 1444.2 335.8 1449.2 329.8C1453.7 324.4 1456.9 317.9 1460.6 311.9C1465.4 303.9 1470.3 295.7 1472.7 286.4C1473.3 283.6 1475.3 275.4 1470.3 275.8C1468.6 276 1466.6 276.6 1464.9 277.7C1466.6 287.6 1464.7 298.2 1458.2 306.2C1454.7 310.5 1449.1 315.2 1443.3 315C1438.2 314.8 1434.7 310.5 1434.5 305.5C1434 294.3 1444.6 282.9 1452.8 276.4C1453.7 275.8 1454.5 275.1 1455.6 274.5C1455.6 274.3 1455.4 274.1 1455.4 273.9C1454.5 271.5 1453.4 269.2 1451.9 267C1449.9 264.2 1448 264.6 1445.2 265.9C1436.8 270 1430.3 279.3 1425.8 287.3C1417.8 301.5 1416.3 318.6 1411.3 334.1C1409.8 339.1 1402 337.2 1403.5 332.2C1407.3 320.1 1409.3 307.2 1413.6 295.1C1417.9 283 1425.5 271.1 1435.4 262.9C1440 259.3 1446.7 254.9 1452.7 257.1C1458.1 259 1461.2 265.7 1463.1 270.7C1470.4 267.5 1478.4 266.6 1481.2 275.9C1484.6 286.9 1477.1 300.5 1471.8 309.3ZM1457.7 283.6C1454 286.6 1450.6 290.3 1448 294.2C1446 297.2 1443.2 301.1 1443 304.8C1442.5 310.8 1450.1 304.1 1451.8 302.2C1454.8 298.9 1456.5 294.8 1457.4 290.5C1457.9 288.2 1457.9 286 1457.7 283.6Z" />
			<path id="Layer" class="shp4" d="M1401.5 382.9C1381.4 373.4 1367.6 360 1367.8 351.2L1367.8 351.2L1359 386.8C1355.8 393.7 1367.6 406.2 1385.8 414.6C1403.7 423 1421 424.5 1424.2 417.6C1424.4 417.2 1424.4 417 1424.6 416.5L1424.6 416.5L1447.5 388.7L1447.5 388.7C1440.8 394.5 1421.6 392.4 1401.5 382.9Z" />
		</g>
		<path id="Layer" class="shp8" d="M271.2 843.2L271.2 843.2C264.1 845.1 256.7 841 254.6 833.9L160.5 496.8C158.6 489.7 162.7 482.3 169.8 480.2L169.8 480.2C176.9 478.3 184.3 482.4 186.4 489.5L280.5 826.6C282.7 833.9 278.6 841.2 271.2 843.2Z" />
		<path id="Pc" class="shp8" d="M254.2 829.6L254.2 829.6C254.6 822.3 260.9 816.4 268.4 816.9L617.8 837.4C625.1 837.8 631 844.1 630.5 851.6L630.5 851.6C630.1 858.9 623.8 864.8 616.3 864.3L266.9 843.8C259.6 843.4 253.8 837.1 254.2 829.6Z" />
		<g id="Layer">
			<path id="Layer" class="shp9" d="M911.7 870.4L911.7 870.4L911.7 870.4L911.7 870.4Z" />
		</g>
	</g>
</svg>